<svg width="323" height="250" viewBox="0 0 323 250" fill="none" xmlns="http://www.w3.org/2000/svg">
<path d="M223.77 56.5918C223.78 55.2515 223.512 53.9236 222.986 52.6912C222.459 51.4588 221.683 50.3482 220.708 49.4288C219.733 48.5094 218.578 47.801 217.317 47.3477C216.056 46.8945 214.714 46.7062 213.377 46.7945C212.04 46.8828 210.735 47.246 209.544 47.8612C208.353 48.4764 207.302 49.3305 206.456 50.3702C205.61 51.4099 204.988 52.6128 204.628 53.9038C204.267 55.1948 204.177 56.5463 204.363 57.8737L176.348 94.5598C175.153 96.9505 174.69 99.6409 175.016 102.294C175.343 104.947 176.445 107.444 178.184 109.474L180.382 112.037L190.465 110.021L201.893 99.9375L200.548 88.5098L214.665 66.3265L214.647 66.3106C217.118 66.1533 219.436 65.061 221.131 63.2557C222.825 61.4505 223.769 59.0678 223.77 56.5918V56.5918Z" fill="#FFB9B9"/>
<path d="M30.041 235.946L25.468 218.962L88.8 193.243L95.549 218.309L30.041 235.946Z" fill="#FFB8B8"/>
<path d="M14.7441 244.709L0 189.947L0.692642 189.761C6.34562 188.239 12.3716 189.025 17.4451 191.946C22.5186 194.867 26.2241 199.683 27.7466 205.336L27.747 205.337L36.7521 238.784L14.7441 244.709Z" fill="#2F2E41"/>
<path d="M117.278 233.232L103.054 222.888L136.185 163.099L157.179 178.366L117.278 233.232Z" fill="#FFB8B8"/>
<path d="M110.879 249.659L65.0127 216.303L65.4346 215.723C68.8779 210.989 74.0608 207.816 79.8434 206.903C85.6259 205.989 91.5344 207.41 96.2694 210.853L96.2705 210.854L124.284 231.226L110.879 249.659Z" fill="#2F2E41"/>
<path d="M238.192 149.682L202.397 114.909C199.273 111.874 195.159 110.07 190.81 109.827C186.462 109.584 182.172 110.919 178.729 113.587L111.143 188.671L117.193 198.082L181.726 154.387L225.42 211.526L267.098 190.687L238.192 149.682Z" fill="#2F2E41"/>
<path d="M222.731 157.076L196.515 155.059L177.529 150.457C176.456 148.784 174.898 147.478 173.064 146.715C171.229 145.952 169.205 145.767 167.262 146.186C165.319 146.605 163.551 147.608 162.194 149.059C160.837 150.511 159.956 152.343 159.668 154.309C159.381 156.275 159.701 158.283 160.586 160.062C161.47 161.841 162.878 163.308 164.619 164.265C166.361 165.223 168.353 165.626 170.329 165.42C172.306 165.214 174.172 164.409 175.679 163.112L175.676 163.126L187.104 167.832L236.176 184.637L242.226 179.932L222.731 157.076Z" fill="#FFB9B9"/>
<path d="M285.92 229.677L271.131 239.088H253.653L172.315 208.838L53.3319 230.349L49.9709 204.804L158.871 157.077L254.326 188.671L285.92 229.677Z" fill="#2F2E41"/>
<path d="M254.326 66.3266C268.805 66.3266 280.542 54.589 280.542 40.11C280.542 25.631 268.805 13.8934 254.326 13.8934C239.847 13.8934 228.109 25.631 228.109 40.11C228.109 54.589 239.847 66.3266 254.326 66.3266Z" fill="#FFB9B9"/>
<path d="M322.159 144.781C322.159 160.603 319.666 176.327 314.772 191.373L312.809 197.409L303.398 240.432L293.315 243.12L285.92 233.709L271.131 222.954L260.376 205.476L251.153 190.109L248.276 185.309L238.192 134.893L199.876 113.382L187.104 111.365L189.793 103.971L201.22 88.5098L212.648 87.1653L216.009 84.4765L218.698 85.8209L233.521 91.531L281.578 71.227L288.609 72.3765L312.809 92.5431C318.995 109.265 322.161 126.952 322.159 144.781V144.781Z" fill="#CCCCCC"/>
<path opacity="0.1" d="M314.825 138.927L289.281 155.732L251.153 190.109L248.276 185.31L240.209 144.977H242.226L263.065 106.661L314.825 138.927Z" fill="black"/>
<path d="M263.065 102.627L242.226 140.943L230.126 154.388L219.371 157.077L248.276 188.671L289.281 151.699L314.825 134.893L263.065 102.627Z" fill="#CCCCCC"/>
<path d="M233.935 20.6168L231.094 21.7096C230.663 21.4177 230.293 21.0437 230.007 20.6089C229.72 20.1742 229.522 19.6873 229.423 19.1759C229.325 18.6646 229.328 18.1389 229.433 17.6288C229.538 17.1187 229.742 16.6342 230.034 16.203C230.049 16.1804 230.065 16.1579 230.08 16.1356L224.831 15.89C228.201 11.4022 232.485 7.68108 237.4 4.97285C242.316 2.26462 247.75 0.631003 253.344 0.180124C258.938 -0.270755 264.564 0.471359 269.849 2.35737C275.135 4.24338 279.96 7.23031 284.005 11.1205C284.244 10.2974 286.849 11.8988 287.912 13.5226C288.27 12.1832 290.713 18.6578 291.577 23.2344C291.977 21.7106 293.514 24.1707 292.167 26.5312C293.021 26.4064 293.406 28.5906 292.746 29.8075C293.68 29.3687 293.522 31.976 292.509 33.7185C293.842 33.6001 292.396 61.0497 272.396 59.0497C271.003 52.6522 271.396 53.0497 269.756 44.8233C268.993 44.0133 268.157 43.2755 267.323 42.5391L262.81 38.5558C257.563 33.9239 252.79 28.2073 245.799 26.4762C240.996 25.2865 237.958 25.018 240.576 19.6047C238.211 20.5918 236.002 22.0596 233.615 22.9764C233.647 22.22 233.981 21.3736 233.935 20.6168Z" fill="#2F2E41"/>
<path d="M267.434 47.8405C270.033 47.8405 272.14 45.7338 272.14 43.135C272.14 40.5362 270.033 38.4294 267.434 38.4294C264.835 38.4294 262.729 40.5362 262.729 43.135C262.729 45.7338 264.835 47.8405 267.434 47.8405Z" fill="#FFB9B9"/>
</svg>
